<svg width="257" height="256" viewBox="0 0 257 256" fill="none" xmlns="http://www.w3.org/2000/svg">
<path d="M43.3438 73.989C34.9316 144.584 116.616 213.069 179.817 162.36C208.351 139.469 228.821 66.2681 180.539 55.5468C152.85 49.4028 123.088 73.9788 96.6942 64.3071C84.0068 59.6633 77.5095 41.39 62.7639 43.3151C48.9195 45.1532 44.7467 62.2233 43.3438 73.989Z" fill="white"/>
<path opacity="0.9" d="M43.3438 73.989C34.9316 144.584 116.616 213.069 179.817 162.36C208.351 139.469 228.821 66.2681 180.539 55.5468C152.85 49.4028 123.088 73.9788 96.6942 64.3071C84.0068 59.6633 77.5095 41.39 62.7639 43.3151C48.9195 45.1532 44.7467 62.2233 43.3438 73.989Z" fill="white"/>
<path d="M128.5 218.911C183.326 218.911 227.772 216.316 227.772 213.115C227.772 209.914 183.326 207.319 128.5 207.319C73.674 207.319 29.2285 209.914 29.2285 213.115C29.2285 216.316 73.674 218.911 128.5 218.911Z" fill="#E0E0E6"/>
<path d="M127.993 79.999H95.5954C93.8864 79.999 92.501 81.3845 92.501 83.0935V91.9046C92.501 93.6136 93.8864 94.999 95.5954 94.999H127.993C129.702 94.999 131.088 93.6136 131.088 91.9046V83.0935C131.088 81.3845 129.702 79.999 127.993 79.999Z" fill="#1E2B7C"/>
<g opacity="0.5">
<path d="M121.566 82.5291H96.2584C95.9593 82.5291 95.7168 82.7715 95.7168 83.0707V83.6651C95.7168 83.9642 95.9593 84.2067 96.2584 84.2067H121.566C121.865 84.2067 122.107 83.9642 122.107 83.6651V83.0707C122.107 82.7715 121.865 82.5291 121.566 82.5291Z" fill="white"/>
<path d="M113.55 86.5718H96.2584C95.9593 86.5718 95.7168 86.8143 95.7168 87.1134V87.7078C95.7168 88.007 95.9593 88.2495 96.2584 88.2495H113.55C113.849 88.2495 114.092 88.007 114.092 87.7078V87.1134C114.092 86.8143 113.849 86.5718 113.55 86.5718Z" fill="white"/>
<path d="M108.914 90.6133H96.2584C95.9593 90.6133 95.7168 90.8558 95.7168 91.1549V91.7493C95.7168 92.0485 95.9593 92.291 96.2584 92.291H108.914C109.213 92.291 109.455 92.0485 109.455 91.7493V91.1549C109.455 90.8558 109.213 90.6133 108.914 90.6133Z" fill="white"/>
<path d="M124.597 90.6133H111.942C111.643 90.6133 111.4 90.8558 111.4 91.1549V91.7493C111.4 92.0485 111.643 92.291 111.942 92.291H124.597C124.896 92.291 125.139 92.0485 125.139 91.7493V91.1549C125.139 90.8558 124.896 90.6133 124.597 90.6133Z" fill="white"/>
</g>
<path d="M139.651 98.999H100.351C97.6722 98.999 95.501 101.216 95.501 103.95V118.048C95.501 120.782 97.6722 122.999 100.351 122.999H139.651C142.33 122.999 144.501 120.782 144.501 118.048V103.95C144.501 101.216 142.33 98.999 139.651 98.999Z" fill="#407BFF"/>
<g opacity="0.5">
<path d="M141.117 102.97H101.402C100.931 102.97 100.55 103.351 100.55 103.822V104.752C100.55 105.222 100.931 105.604 101.402 105.604H141.117C141.588 105.604 141.969 105.222 141.969 104.752V103.822C141.969 103.351 141.588 102.97 141.117 102.97Z" fill="white"/>
<path d="M128.535 109.315H101.402C100.931 109.315 100.55 109.696 100.55 110.167V111.097C100.55 111.567 100.931 111.949 101.402 111.949H128.535C129.006 111.949 129.387 111.567 129.387 111.097V110.167C129.387 109.696 129.006 109.315 128.535 109.315Z" fill="white"/>
<path d="M121.26 115.662H101.402C100.931 115.662 100.55 116.043 100.55 116.514V117.443C100.55 117.914 100.931 118.295 101.402 118.295H121.26C121.73 118.295 122.112 117.914 122.112 117.443V116.514C122.112 116.043 121.73 115.662 121.26 115.662Z" fill="white"/>
<path d="M142.563 115.662H126.018C125.547 115.662 125.166 116.043 125.166 116.514V117.443C125.166 117.914 125.547 118.295 126.018 118.295H142.563C143.034 118.295 143.415 117.914 143.415 117.443V116.514C143.415 116.043 143.034 115.662 142.563 115.662Z" fill="white"/>
</g>
<path d="M158.45 92.8459V78.93C158.45 77.8636 157.711 76.999 156.8 76.999H136.151C135.24 76.999 134.501 77.8636 134.501 78.93V92.8459C134.501 93.9124 135.24 94.7769 136.151 94.7769H156.8C157.711 94.7769 158.45 93.9124 158.45 92.8459Z" fill="#A91E2F"/>
<path d="M156.354 88.0771V79.51C156.354 79.0355 156.026 78.6509 155.62 78.6509H148.872C148.467 78.6509 148.138 79.0355 148.138 79.51V88.0771C148.138 88.5516 148.467 88.9362 148.872 88.9362H155.62C156.026 88.9362 156.354 88.5516 156.354 88.0771Z" fill="white"/>
<path d="M146.852 92.2213V85.6569C146.852 85.2926 146.599 84.9973 146.288 84.9973H141.117C140.806 84.9973 140.553 85.2926 140.553 85.6569V92.2213C140.553 92.5856 140.806 92.8809 141.117 92.8809H146.288C146.599 92.8809 146.852 92.5856 146.852 92.2213Z" fill="white"/>
<path d="M67.2444 99.4612C66.7938 100.485 66.2972 101.591 65.862 102.671C65.4268 103.752 64.9762 104.863 64.582 105.969C63.7731 108.125 63.1245 110.337 62.6415 112.589L62.493 113.408L62.4418 113.715C62.4418 113.802 62.4418 113.915 62.4111 114.017C62.3917 114.516 62.4019 115.015 62.4418 115.512C62.5391 116.593 62.7132 117.75 62.9538 118.907C63.3839 121.226 63.9318 123.617 64.4898 125.973L61.8633 126.997C60.6389 124.765 59.5962 122.438 58.7452 120.038C58.2969 118.79 57.9342 117.512 57.6598 116.214C57.506 115.496 57.4101 114.766 57.373 114.033C57.373 113.828 57.373 113.633 57.373 113.413C57.373 113.193 57.373 112.947 57.4089 112.804L57.5113 111.78C57.6643 110.461 57.8985 109.153 58.2127 107.863C58.4994 106.583 58.8681 105.339 59.2367 104.11C59.6054 102.881 60.0662 101.673 60.5526 100.485C60.7932 99.8912 61.0646 99.3024 61.3001 98.7136C61.5356 98.1248 61.8121 97.5616 62.1398 96.9319L67.2444 99.4612Z" fill="#E4897B"/>
<path d="M64.3517 125.281L66.3485 127.232L61.9914 129.28C61.9914 129.28 60.9367 127.432 61.6688 125.763L64.3517 125.281Z" fill="#E4897B"/>
<path d="M67.9609 130.135L64.2796 131.64L61.9961 129.259L66.3481 127.232L67.9609 130.135Z" fill="#E4897B"/>
<path opacity="0.4" d="M142.534 128.036C135.29 127.222 128.449 124.279 122.877 119.579C117.305 114.878 113.252 108.631 111.23 101.627C109.208 94.6237 109.308 87.1776 111.517 80.2306C113.726 73.2835 117.945 67.1474 123.641 62.5979C129.337 58.0484 136.254 55.2899 143.517 54.671C150.781 54.0521 158.065 55.6006 164.448 59.1208C170.832 62.641 176.029 67.9748 179.381 74.4479C182.734 80.9211 184.092 88.2429 183.284 95.4878C182.747 100.301 181.267 104.962 178.928 109.203C176.589 113.444 173.438 117.183 169.653 120.206C165.869 123.228 161.526 125.476 156.873 126.819C152.22 128.163 147.347 128.576 142.534 128.036Z" fill="#FAFAFA"/>
<path opacity="0.4" d="M169.353 62.3565L113.289 107.151C113.053 106.639 112.823 106.127 112.608 105.615C111.202 102.272 110.303 98.738 109.94 95.1296L158.365 56.4377C162.341 57.7639 166.058 59.7662 169.353 62.3565Z" fill="#FAFAFA"/>
<path opacity="0.4" d="M182.291 81.9814L129.581 124.093C124.573 121.483 120.234 117.755 116.898 113.198L174.452 67.2102C178.162 71.4685 180.844 76.5222 182.291 81.9814Z" fill="#FAFAFA"/>
<path d="M105.148 77.312L104.661 77.1481C105.504 74.6624 106.562 72.2553 107.825 69.9546L108.271 70.2003C107.024 72.4753 105.979 74.8549 105.148 77.312ZM111.363 65.3619L110.948 65.0598C115.156 59.3704 120.663 54.7694 127.01 51.6403L127.24 52.1011C120.965 55.1979 115.522 59.7497 111.363 65.3773V65.3619ZM167.473 52.8026C165.8 51.9051 164.069 51.1201 162.292 50.4525L162.476 49.9712C164.271 50.6544 166.019 51.4549 167.709 52.3674L167.473 52.8026Z" fill="#407BFF"/>
<path opacity="0.3" d="M105.148 77.312L104.661 77.1481C105.504 74.6624 106.562 72.2553 107.825 69.9546L108.271 70.2003C107.024 72.4753 105.979 74.8549 105.148 77.312ZM111.363 65.3619L110.948 65.0598C115.156 59.3704 120.663 54.7694 127.01 51.6403L127.24 52.1011C120.965 55.1979 115.522 59.7497 111.363 65.3773V65.3619ZM167.473 52.8026C165.8 51.9051 164.069 51.1201 162.292 50.4525L162.476 49.9712C164.271 50.6544 166.019 51.4549 167.709 52.3674L167.473 52.8026Z" fill="black"/>
<path d="M184.754 72.5708C180.013 62.738 171.67 55.1067 161.454 51.2589C151.239 47.411 139.935 47.6418 129.885 51.9034C119.835 56.165 111.81 64.1304 107.475 74.1485C103.139 84.1666 102.825 95.469 106.597 105.713C103.177 106.911 99.7976 108.196 96.4389 109.522C91.5954 111.444 86.7962 113.451 82.0414 115.543C77.2901 117.647 72.5592 119.793 67.8744 122.035C65.5243 123.136 63.2049 124.298 60.8651 125.425C59.6479 125.948 58.545 126.704 57.619 127.652C57.1179 128.176 56.6766 128.755 56.3032 129.377C55.8476 130.113 55.5025 130.912 55.2792 131.748C54.8939 133.254 55.0605 134.849 55.7489 136.244C56.4372 137.638 57.6018 138.74 59.0321 139.351C59.8264 139.684 60.6644 139.901 61.5205 139.996C62.2435 140.078 62.9734 140.078 63.6965 139.996C65.0104 139.837 66.2802 139.421 67.4341 138.772C69.7534 137.6 72.0882 136.468 74.3922 135.265C79.0002 132.915 83.6082 130.463 88.1598 127.974C92.7115 125.486 97.2683 122.88 101.712 120.207C104.784 118.349 107.887 116.449 110.928 114.463C116.768 123.682 125.932 130.301 136.519 132.949C147.106 135.596 158.307 134.069 167.799 128.683C177.291 123.298 184.347 114.467 187.505 104.021C190.664 93.5743 189.682 82.3132 184.764 72.5708H184.754ZM161.478 121.482C155.528 124.419 148.841 125.526 142.262 124.662C135.683 123.799 129.507 121.004 124.517 116.631C119.526 112.258 115.944 106.503 114.224 100.095C112.503 93.6861 112.722 86.9113 114.852 80.6269C116.982 74.3425 120.927 68.8308 126.189 64.7887C131.452 60.7466 137.794 58.3555 144.415 57.918C151.036 57.4804 157.639 59.0159 163.387 62.3304C169.135 65.6448 173.772 70.5894 176.71 76.5388C178.662 80.4899 179.816 84.7867 180.106 89.1838C180.397 93.5809 179.818 97.9922 178.404 102.166C176.989 106.339 174.767 110.193 171.862 113.508C168.958 116.822 165.43 119.532 161.478 121.482Z" fill="#407BFF"/>
<path opacity="0.9" d="M184.754 72.5708C180.013 62.738 171.67 55.1067 161.454 51.2589C151.239 47.411 139.935 47.6418 129.885 51.9034C119.835 56.165 111.81 64.1304 107.475 74.1485C103.139 84.1666 102.825 95.469 106.597 105.713C103.177 106.911 99.7976 108.196 96.4389 109.522C91.5954 111.444 86.7962 113.451 82.0414 115.543C77.2901 117.647 72.5592 119.793 67.8744 122.035C65.5243 123.136 63.2049 124.298 60.8651 125.425C59.6479 125.948 58.545 126.704 57.619 127.652C57.1179 128.176 56.6766 128.755 56.3032 129.377C55.8476 130.113 55.5025 130.912 55.2792 131.748C54.8939 133.254 55.0605 134.849 55.7489 136.244C56.4372 137.638 57.6018 138.74 59.0321 139.351C59.8264 139.684 60.6644 139.901 61.5205 139.996C62.2435 140.078 62.9734 140.078 63.6965 139.996C65.0104 139.837 66.2802 139.421 67.4341 138.772C69.7534 137.6 72.0882 136.468 74.3922 135.265C79.0002 132.915 83.6082 130.463 88.1598 127.974C92.7115 125.486 97.2683 122.88 101.712 120.207C104.784 118.349 107.887 116.449 110.928 114.463C116.768 123.682 125.932 130.301 136.519 132.949C147.106 135.596 158.307 134.069 167.799 128.683C177.291 123.298 184.347 114.467 187.505 104.021C190.664 93.5743 189.682 82.3132 184.764 72.5708H184.754ZM161.478 121.482C155.528 124.419 148.841 125.526 142.262 124.662C135.683 123.799 129.507 121.004 124.517 116.631C119.526 112.258 115.944 106.503 114.224 100.095C112.503 93.6861 112.722 86.9113 114.852 80.6269C116.982 74.3425 120.927 68.8308 126.189 64.7887C131.452 60.7466 137.794 58.3555 144.415 57.918C151.036 57.4804 157.639 59.0159 163.387 62.3304C169.135 65.6448 173.772 70.5894 176.71 76.5388C178.662 80.4899 179.816 84.7867 180.106 89.1838C180.397 93.5809 179.818 97.9922 178.404 102.166C176.989 106.339 174.767 110.193 171.862 113.508C168.958 116.822 165.43 119.532 161.478 121.482Z" fill="#0073A8"/>
<path d="M81.3965 81.1775C81.3965 81.4796 81.5552 81.7253 81.7549 81.7253C81.9546 81.7253 82.1133 81.4796 82.1133 81.1775C82.1133 80.8754 81.9546 80.6296 81.7549 80.6296C81.5552 80.6296 81.3965 80.8959 81.3965 81.1775Z" fill="#263238"/>
<path d="M81.5391 81.7253C81.9015 82.6526 82.389 83.526 82.988 84.3212C82.7809 84.4694 82.5439 84.5704 82.2936 84.6173C82.0433 84.6642 81.7858 84.6557 81.5391 84.5925V81.7253Z" fill="#DE5753"/>
<path d="M80.3358 79.4932C80.3073 79.4932 80.2791 79.4867 80.2534 79.4743C80.2277 79.4619 80.2051 79.4438 80.1874 79.4215C80.1607 79.3824 80.1501 79.3346 80.1577 79.2879C80.1653 79.2412 80.1906 79.1992 80.2283 79.1706C80.4538 78.9996 80.7173 78.8856 80.9963 78.8384C81.2754 78.7911 81.5617 78.812 81.8309 78.8993C81.8551 78.9058 81.8776 78.9174 81.897 78.9333C81.9164 78.9491 81.9323 78.9688 81.9437 78.9912C81.955 79.0135 81.9615 79.038 81.9628 79.063C81.964 79.0881 81.96 79.1131 81.951 79.1365C81.942 79.1599 81.9282 79.1811 81.9105 79.1988C81.8928 79.2166 81.8716 79.2304 81.8482 79.2394C81.8248 79.2484 81.7998 79.2524 81.7748 79.2511C81.7497 79.2499 81.7253 79.2434 81.7029 79.232C81.489 79.1665 81.2626 79.1532 81.0425 79.1932C80.8225 79.2333 80.6152 79.3257 80.4383 79.4624C80.4079 79.4826 80.3723 79.4933 80.3358 79.4932Z" fill="#263238"/>
<path d="M71.054 83.4561C71.566 86.2055 72.1292 91.2487 70.2041 93.0868C70.2041 93.0868 70.9567 95.8772 76.0716 95.8772C81.7036 95.8772 78.7545 93.0868 78.7545 93.0868C75.6825 92.3495 75.7695 90.0762 76.302 87.9361L71.054 83.4561Z" fill="#E4897B"/>
<path d="M67.905 94.5355C68.5142 93.5883 67.4902 91.2894 67.4902 91.2894C67.4902 91.2894 76.5424 89.011 80.2442 92.508C81.0122 93.2299 80.1622 94.2949 80.1622 94.2949L67.905 94.5355Z" fill="#407BFF"/>
<path d="M67.905 94.5355C68.5142 93.5883 67.4902 91.2894 67.4902 91.2894C67.4902 91.2894 76.5424 89.011 80.2442 92.508C81.0122 93.2299 80.1622 94.2949 80.1622 94.2949L67.905 94.5355Z" fill="#1E2B7C"/>
<path d="M52.9284 198.999C52.4522 198.999 51.6894 198.205 51.4641 197.909C51.4544 197.894 51.4492 197.877 51.4492 197.86C51.4492 197.843 51.4544 197.826 51.4641 197.811C51.4723 197.797 51.4843 197.785 51.4987 197.777C51.5131 197.769 51.5295 197.765 51.546 197.765C51.6023 197.765 52.8567 197.878 53.1998 198.323C53.2371 198.37 53.2637 198.425 53.2778 198.483C53.292 198.542 53.2933 198.602 53.2817 198.661C53.2772 198.737 53.2492 198.81 53.2015 198.87C53.1538 198.93 53.0888 198.973 53.0154 198.994L52.9284 198.999ZM51.7406 197.975C52.1143 198.405 52.7134 198.892 52.9694 198.83C52.9694 198.83 53.0718 198.805 53.1025 198.641C53.1092 198.606 53.1081 198.571 53.0992 198.538C53.0904 198.504 53.074 198.473 53.0513 198.446C52.672 198.159 52.2156 197.991 51.7406 197.965V197.975Z" fill="#407BFF"/>
<path d="M51.7976 197.965C51.7057 197.974 51.613 197.974 51.5211 197.965C51.5049 197.963 51.4895 197.957 51.4767 197.947C51.4639 197.937 51.4545 197.924 51.4494 197.908C51.4422 197.894 51.4385 197.878 51.4385 197.862C51.4385 197.846 51.4422 197.83 51.4494 197.816C51.4853 197.785 52.2379 197.002 52.8062 197.002C52.8742 197.001 52.9418 197.013 53.0045 197.04C53.0671 197.066 53.1235 197.106 53.1697 197.156C53.2207 197.198 53.2556 197.257 53.2686 197.322C53.2817 197.387 53.2721 197.455 53.2414 197.514C53.0929 197.801 52.3096 197.965 51.7976 197.965ZM51.731 197.785C52.243 197.785 52.9854 197.627 53.1083 197.401C53.1083 197.401 53.1442 197.335 53.0622 197.253C53.0324 197.221 52.9959 197.195 52.9552 197.178C52.9145 197.161 52.8707 197.154 52.8267 197.156C52.407 197.252 52.0255 197.471 51.731 197.785Z" fill="#407BFF"/>
<path d="M86.7161 210.621C86.328 210.619 85.9409 210.583 85.559 210.514C85.54 210.51 85.5229 210.5 85.5107 210.485C85.4985 210.47 85.4921 210.451 85.4924 210.432C85.4895 210.414 85.4919 210.396 85.4992 210.38C85.5064 210.363 85.5183 210.349 85.5334 210.34C85.5897 210.309 86.9004 209.556 87.5302 209.73C87.5886 209.744 87.6436 209.769 87.6921 209.804C87.7405 209.839 87.7812 209.884 87.8118 209.935C87.8519 209.992 87.8734 210.06 87.8734 210.13C87.8734 210.199 87.8519 210.267 87.8118 210.324C87.6633 210.555 87.1974 210.621 86.7161 210.621ZM85.8508 210.381C86.5471 210.483 87.4994 210.478 87.6735 210.232C87.6991 210.201 87.7196 210.145 87.6735 210.038C87.6344 209.974 87.5719 209.928 87.4994 209.91C87.1001 209.807 86.3065 210.145 85.8508 210.381Z" fill="#407BFF"/>
<path d="M85.5793 210.519C85.5625 210.524 85.5448 210.524 85.5281 210.519C85.5139 210.51 85.5028 210.497 85.4964 210.481C85.49 210.466 85.4885 210.448 85.4922 210.432C85.5269 209.899 85.7315 209.391 86.0759 208.983C86.1456 208.923 86.2274 208.879 86.3157 208.853C86.4041 208.827 86.4969 208.821 86.5879 208.835C86.8337 208.835 86.9054 208.983 86.9207 209.08C86.9873 209.505 86.0913 210.319 85.6356 210.524L85.5793 210.519ZM86.4958 208.983C86.3831 208.982 86.274 209.022 86.1886 209.096C85.899 209.419 85.7198 209.826 85.6766 210.258C86.1374 209.976 86.7518 209.341 86.7006 209.085C86.7006 209.085 86.7006 208.998 86.5265 208.983H86.4958Z" fill="#407BFF"/>
<path d="M81.4424 210.427H85.2056L85.5793 201.718H81.8161L81.4424 210.427Z" fill="#E4897B"/>
<path d="M47.9316 195.476L51.0753 197.535L58.018 191.672L54.8692 189.609L47.9316 195.476Z" fill="#E4897B"/>
<path d="M51.5925 197.34L48.326 194.662C48.2683 194.615 48.1959 194.589 48.1212 194.589C48.0465 194.589 47.9741 194.615 47.9164 194.662L45.2232 196.777C45.1582 196.829 45.1056 196.894 45.0695 196.969C45.0334 197.044 45.0146 197.126 45.0146 197.209C45.0146 197.293 45.0334 197.375 45.0695 197.45C45.1056 197.524 45.1582 197.59 45.2232 197.642C46.3804 198.559 46.9896 198.948 48.4284 200.125C49.3141 200.847 51.5004 203.059 52.7343 204.057C53.9682 205.056 55.0997 203.981 54.6901 203.464C52.852 201.134 52.1301 199.142 51.9202 197.908C51.8839 197.685 51.7674 197.483 51.5925 197.34Z" fill="#263238"/>
<path d="M85.1798 209.992H81.0838C81.0091 209.992 80.9367 210.017 80.8782 210.064C80.8197 210.11 80.7785 210.175 80.7613 210.248L80.0189 213.591C80.0002 213.672 80.0002 213.756 80.0189 213.837C80.0376 213.918 80.0745 213.994 80.1268 214.059C80.1791 214.123 80.2455 214.175 80.3208 214.21C80.3961 214.246 80.4784 214.263 80.5616 214.262C82.0413 214.236 84.1814 214.149 86.0451 214.149C88.2211 214.149 90.1053 214.267 92.655 214.267C94.191 214.267 94.6313 212.705 93.9811 212.567C91.0422 211.922 88.6358 211.855 86.0963 210.284C85.8238 210.103 85.5065 210.002 85.1798 209.992Z" fill="#263238"/>
<path d="M62.7899 94.208C59.5285 95.744 57.6699 106.035 57.6699 106.035L65.6418 109.215C66.8086 106.365 67.7519 103.43 68.4629 100.434C69.5586 95.6928 66.1282 92.6208 62.7899 94.208Z" fill="#A91E2F"/>
<path d="M67.0195 100.009C65.0483 102.006 64.1472 105.917 63.7529 108.462L65.6627 109.225C66.7964 106.457 67.7206 103.607 68.4275 100.7C68.2585 99.6147 67.8387 99.1795 67.0195 100.009Z" fill="#A91E2F"/>
<path d="M84.5395 94.1361C84.5395 94.1361 88.5433 98.6622 84.7648 126.648H64.6483C64.5101 123.576 66.4505 108.498 63.4707 93.9467C65.6938 93.5156 67.943 93.2317 70.2035 93.0968C73.0511 92.9277 75.9063 92.9277 78.7539 93.0968C80.7064 93.2933 82.6407 93.6408 84.5395 94.1361Z" fill="#A91E2F"/>
<path d="M86.3782 105.001L82.9887 99.1589C82.3344 101.885 82.0673 104.689 82.1951 107.489C82.2873 109.496 84.1254 116.93 85.7791 118.016C86.218 113.692 86.4179 109.347 86.3782 105.001Z" fill="#A91E2F"/>
<path d="M86.8489 98.135C87.3609 100.623 87.8729 103.173 88.4207 105.672C88.9685 108.17 89.5369 110.679 90.1973 113.101C90.3663 113.7 90.525 114.314 90.7093 114.888L90.8476 115.328L90.9141 115.548V115.523C90.8783 115.476 90.8373 115.471 90.8681 115.523C91.0785 115.752 91.3475 115.92 91.6463 116.009C92.1303 116.189 92.6287 116.328 93.1362 116.424C95.5569 116.807 98.0078 116.967 100.458 116.9L100.944 119.685C100.258 119.905 99.6181 120.064 98.9423 120.223C98.2665 120.381 97.6009 120.515 96.9199 120.617C95.511 120.851 94.0825 120.948 92.6549 120.904C91.8614 120.882 91.0722 120.779 90.2997 120.596C89.3175 120.382 88.3946 119.953 87.5964 119.342C87.075 118.921 86.6448 118.399 86.3317 117.806C86.2498 117.652 86.1781 117.478 86.1116 117.33L86.0194 117.089L85.83 116.577C85.5689 115.927 85.3538 115.287 85.1183 114.647C84.253 112.087 83.5311 109.501 82.8962 106.921C82.2613 104.34 81.7135 101.765 81.2578 99.118L86.8489 98.135Z" fill="#E4897B"/>
<path d="M79.5168 96.8805C78.457 100.316 82.7527 110.561 82.7527 110.561L91.3082 108.411C91.3082 108.411 90.9805 103.086 89.0298 98.8619C86.0909 92.4926 80.7866 92.7589 79.5168 96.8805Z" fill="#A91E2F"/>
<path d="M100.386 116.9L104.646 116.792L102.598 121.226C102.598 121.226 100.862 121.457 99.4386 119.117L97.9385 117.325L99.6639 116.982C99.9014 116.932 100.143 116.904 100.386 116.9Z" fill="#E4897B"/>
<path d="M107.334 117.617L104.897 121.293L102.598 121.226L104.646 116.792L107.334 117.617Z" fill="#E4897B"/>
<path d="M85.5789 201.718L85.3843 206.208H81.6211L81.8157 201.718H85.5789Z" fill="#CE6F64"/>
<path d="M54.8689 189.609L58.0177 191.672L54.4337 194.693L51.29 192.635L54.8689 189.609Z" fill="#CE6F64"/>
<path d="M71.2891 80.5274C71.5144 84.2496 71.458 86.4461 73.3371 88.3558C76.1633 91.2384 80.7662 89.5334 81.6571 85.7958C82.4609 82.4474 81.9592 76.9178 78.3137 75.433C77.5094 75.1083 76.6357 74.9933 75.7747 75.0988C74.9137 75.2043 74.0937 75.5268 73.3915 76.036C72.6893 76.5453 72.128 77.2246 71.7602 78.0102C71.3925 78.7958 71.2304 79.6619 71.2891 80.5274Z" fill="#E4897B"/>
<path d="M66.9064 79.8718C67.8332 83.2664 70.0143 87.1781 72.8354 87.4289C76.3375 87.7361 77.9196 84.1163 78.3804 80.3787C80.4796 78.94 79.3788 77.3579 81.4831 77.1582C84.1864 76.9022 83.3212 71.9563 79.7628 71.1627C79.7628 71.1627 80.9557 73.3899 78.452 72.2635C76.071 71.1319 73.4258 70.6733 70.8028 70.9374C70.8028 70.9374 73.9976 72.5349 70.8744 73.2465C67.7512 73.9582 66.8194 75.8833 68.2581 77.0456C68.2581 77.0507 66.2972 77.6395 66.9064 79.8718Z" fill="#263238"/>
<path d="M76.2451 81.1468C76.3139 82.072 76.6865 82.9486 77.3049 83.6402C78.1241 84.5464 78.9792 83.9832 79.1225 82.8824C79.2556 81.8943 78.9843 80.2303 77.9808 79.7285C76.9772 79.2267 76.1785 80.0306 76.2451 81.1468Z" fill="#E4897B"/>
<path d="M77.6278 126.648C77.6278 126.648 81.2937 153.195 78.4061 163.835C73.8288 180.68 56.3286 194.898 56.3286 194.898L50.3945 191.007C50.3945 191.007 65.2989 179 67.1216 164.895C68.76 152.233 64.6486 136.919 64.6486 126.643L77.6278 126.648Z" fill="#407BFF"/>
<path d="M77.6278 126.648C77.6278 126.648 81.2937 153.195 78.4061 163.835C73.8288 180.68 56.3286 194.898 56.3286 194.898L50.3945 191.007C50.3945 191.007 65.2989 179 67.1216 164.895C68.76 152.233 64.6486 136.919 64.6486 126.643L77.6278 126.648Z" fill="#1E2B7C"/>
<path d="M79.1429 141.824C78.1669 140.706 77.0925 139.678 75.9326 138.752C76.5573 147.369 77.0693 160.133 76.5009 169.201C77.2651 167.462 77.9016 165.671 78.4056 163.84C79.8136 158.643 79.6651 149.668 79.1429 141.824Z" fill="#407BFF"/>
<path opacity="0.8" d="M79.1429 141.824C78.1669 140.706 77.0925 139.678 75.9326 138.752C76.5573 147.369 77.0693 160.133 76.5009 169.201C77.2651 167.462 77.9016 165.671 78.4056 163.84C79.8136 158.643 79.6651 149.668 79.1429 141.824Z" fill="#1E2B7C"/>
<path d="M58.7193 193.572C58.7449 193.572 56.4204 195.108 56.4204 195.108L49.9385 190.858L51.9865 189.163L58.7193 193.572Z" fill="#407BFF"/>
<path d="M58.7193 193.572C58.7449 193.572 56.4204 195.108 56.4204 195.108L49.9385 190.858L51.9865 189.163L58.7193 193.572Z" fill="#FBAE17"/>
<path d="M84.765 126.648C84.765 126.648 90.4277 150.661 90.8271 162.135C91.2776 174.996 86.7874 205.337 86.7874 205.337H80.413C80.413 205.337 79.6296 174.761 79.348 163.046C79.0357 150.272 71.54 126.648 71.54 126.648H84.765Z" fill="#407BFF"/>
<path d="M84.765 126.648C84.765 126.648 90.4277 150.661 90.8271 162.135C91.2776 174.996 86.7874 205.337 86.7874 205.337H80.413C80.413 205.337 79.6296 174.761 79.348 163.046C79.0357 150.272 71.54 126.648 71.54 126.648H84.765Z" fill="#1E2B7C"/>
<path d="M88.0114 202.803C88.0421 202.803 87.653 205.445 87.653 205.445H79.9013L79.6914 203.085L88.0114 202.803Z" fill="#407BFF"/>
<path d="M88.0114 202.803C88.0421 202.803 87.653 205.445 87.653 205.445H79.9013L79.6914 203.085L88.0114 202.803Z" fill="#FBAE17"/>
<path d="M182.772 103.573C183.207 103.982 183.55 104.33 183.908 104.719C184.267 105.109 184.605 105.487 184.932 105.882C185.598 106.665 186.223 107.489 186.827 108.319C188.033 109.983 189.107 111.739 190.037 113.572L190.226 113.946C190.319 114.127 190.396 114.315 190.457 114.509C190.581 114.883 190.656 115.272 190.682 115.666C190.715 116.36 190.62 117.055 190.401 117.714C190.027 118.809 189.471 119.834 188.757 120.745C187.47 122.397 185.953 123.856 184.251 125.077L182.977 123.612C183.576 122.911 184.2 122.158 184.758 121.405C185.326 120.676 185.84 119.906 186.294 119.101C186.719 118.399 187.033 117.636 187.226 116.838C187.292 116.553 187.304 116.258 187.262 115.968C187.244 115.871 187.213 115.776 187.17 115.686C187.151 115.647 187.128 115.609 187.103 115.574L186.939 115.297C185.952 113.687 184.88 112.13 183.729 110.633C183.161 109.88 182.552 109.158 181.937 108.447C181.635 108.088 181.323 107.74 181.01 107.392C180.698 107.044 180.36 106.696 180.089 106.424L182.772 103.573Z" fill="#E4897B"/>
<path d="M183.468 123.182L179.644 122.557L181.645 125.906C181.645 125.906 184.108 125.819 184.81 124.37L183.468 123.182Z" fill="#E4897B"/>
<path d="M176.817 124.104L178.64 126.822L181.646 125.906L179.644 122.557L176.817 124.104Z" fill="#E4897B"/>
<path d="M183.284 210.575C183.024 210.598 182.765 210.527 182.552 210.376C182.488 210.315 182.44 210.239 182.414 210.155C182.388 210.07 182.385 209.981 182.403 209.895C182.407 209.84 182.426 209.787 182.457 209.742C182.489 209.696 182.532 209.661 182.583 209.639C183.028 209.439 184.195 210.186 184.329 210.273C184.344 210.283 184.355 210.297 184.362 210.313C184.368 210.33 184.369 210.348 184.364 210.366C184.362 210.383 184.355 210.399 184.343 210.412C184.331 210.425 184.315 210.434 184.298 210.437C183.966 210.521 183.626 210.568 183.284 210.575ZM182.772 209.782C182.735 209.776 182.697 209.776 182.659 209.782C182.637 209.792 182.618 209.809 182.604 209.83C182.591 209.851 182.583 209.875 182.583 209.9C182.569 209.957 182.57 210.016 182.587 210.073C182.603 210.129 182.633 210.181 182.675 210.222C182.869 210.396 183.371 210.422 184.042 210.289C183.658 210.035 183.225 209.862 182.772 209.782Z" fill="#007535"/>
<path d="M184.308 210.432H184.262C183.898 210.222 183.197 209.408 183.284 208.963C183.3 208.892 183.339 208.83 183.395 208.783C183.45 208.737 183.519 208.71 183.591 208.707C183.66 208.697 183.731 208.703 183.797 208.724C183.864 208.745 183.924 208.781 183.975 208.829C184.395 209.198 184.4 210.304 184.4 210.365C184.399 210.381 184.394 210.396 184.386 210.41C184.378 210.423 184.367 210.434 184.354 210.442L184.308 210.432ZM183.652 208.896H183.611C183.499 208.896 183.473 208.957 183.463 209.004C183.412 209.265 183.847 209.889 184.21 210.181C184.219 209.752 184.096 209.33 183.857 208.973C183.827 208.944 183.79 208.923 183.75 208.909C183.711 208.896 183.668 208.892 183.627 208.896H183.652Z" fill="#007535"/>
<path d="M165.834 210.575C165.507 210.607 165.18 210.523 164.908 210.34C164.846 210.285 164.799 210.217 164.769 210.14C164.74 210.064 164.729 209.981 164.739 209.9C164.742 209.85 164.758 209.802 164.785 209.76C164.811 209.718 164.848 209.683 164.892 209.659C165.368 209.393 166.894 210.171 167.068 210.268C167.084 210.279 167.097 210.293 167.105 210.31C167.113 210.328 167.116 210.347 167.114 210.366C167.111 210.383 167.103 210.4 167.09 210.413C167.077 210.426 167.061 210.434 167.043 210.437C166.645 210.522 166.241 210.568 165.834 210.575ZM165.153 209.782C165.095 209.778 165.036 209.79 164.984 209.818C164.966 209.826 164.95 209.84 164.94 209.857C164.929 209.875 164.923 209.895 164.923 209.915C164.915 209.968 164.92 210.023 164.938 210.074C164.956 210.124 164.986 210.17 165.025 210.207C165.261 210.417 165.891 210.453 166.74 210.309C166.245 210.045 165.708 209.867 165.153 209.782Z" fill="#007535"/>
<path d="M167.028 210.432H166.987C166.531 210.227 165.625 209.408 165.696 208.963C165.696 208.86 165.789 208.732 166.039 208.707C166.131 208.697 166.224 208.706 166.312 208.733C166.4 208.76 166.481 208.805 166.551 208.865C167.033 209.265 167.125 210.299 167.125 210.345C167.127 210.361 167.125 210.376 167.118 210.391C167.112 210.405 167.102 210.418 167.089 210.427C167.07 210.435 167.048 210.437 167.028 210.432ZM166.111 208.896H166.055C165.891 208.896 165.881 208.978 165.876 208.998C165.835 209.259 166.449 209.91 166.9 210.191C166.855 209.754 166.676 209.341 166.388 209.009C166.31 208.942 166.213 208.903 166.111 208.896Z" fill="#007535"/>
<path d="M173.08 91.8015C172.931 94.1158 172.532 98.8159 174.309 100.116C174.309 100.116 173.986 102.487 169.793 103.04C165.185 103.639 167.289 101.038 167.289 101.038C169.731 100.106 169.419 98.2476 168.753 96.5478L173.08 91.8015Z" fill="#E4897B"/>
<path d="M163.541 87.7107C163.515 87.7107 163.49 87.7053 163.467 87.6947C163.444 87.684 163.424 87.6686 163.408 87.6492C163.261 87.4756 163.076 87.3387 162.867 87.2498C162.658 87.1609 162.431 87.1223 162.204 87.1372C162.18 87.1416 162.156 87.1411 162.132 87.1356C162.108 87.1302 162.086 87.1199 162.066 87.1056C162.047 87.0912 162.03 87.073 162.018 87.052C162.006 87.031 161.998 87.0078 161.994 86.9836C161.989 86.9355 162.002 86.887 162.032 86.8487C162.062 86.8103 162.105 86.7852 162.153 86.7788C162.442 86.7544 162.733 86.8003 163 86.9127C163.268 87.025 163.504 87.2004 163.689 87.424C163.711 87.4507 163.726 87.4831 163.73 87.5175C163.735 87.5519 163.729 87.5869 163.715 87.6185C163.701 87.65 163.678 87.6769 163.649 87.6959C163.619 87.7149 163.586 87.7254 163.551 87.726L163.541 87.7107Z" fill="#263238"/>
<path d="M162.742 89.979C162.56 90.7134 162.279 91.4196 161.907 92.0782C162.078 92.1702 162.267 92.2234 162.461 92.234C162.655 92.2446 162.849 92.2124 163.029 92.1396L162.742 89.979Z" fill="#DE5753"/>
<path d="M162.947 89.4158C162.988 89.723 162.86 89.9892 162.66 90.0199C162.46 90.0507 162.261 89.8151 162.225 89.5079C162.189 89.2007 162.312 88.9345 162.512 88.9089C162.711 88.8833 162.911 89.0881 162.947 89.4158Z" fill="#263238"/>
<path d="M162.604 88.9139L161.841 88.7961C161.841 88.7961 162.291 89.3235 162.604 88.9139Z" fill="#263238"/>
<path d="M171.246 210.35H167.406L167.15 201.467H170.99L171.246 210.35Z" fill="#E4897B"/>
<path d="M188.68 210.35H184.84L183.606 201.467H187.446L188.68 210.35Z" fill="#E4897B"/>
<path d="M184.604 209.92H188.915C188.989 209.919 189.06 209.945 189.116 209.993C189.171 210.042 189.207 210.108 189.217 210.181L189.729 213.596C189.739 213.682 189.73 213.769 189.703 213.852C189.677 213.934 189.633 214.01 189.575 214.074C189.517 214.139 189.446 214.19 189.367 214.225C189.287 214.26 189.202 214.278 189.115 214.277C187.615 214.251 186.888 214.164 184.993 214.164C183.826 214.164 182.121 214.282 180.513 214.282C178.906 214.282 178.819 212.69 179.489 212.546C182.495 211.901 182.971 211.01 183.98 210.155C184.156 210.009 184.376 209.926 184.604 209.92Z" fill="#A91E2F"/>
<path d="M167.279 209.92H171.585C171.659 209.919 171.731 209.945 171.787 209.993C171.844 210.041 171.881 210.108 171.892 210.181L172.404 213.596C172.413 213.682 172.404 213.769 172.378 213.852C172.351 213.934 172.307 214.01 172.249 214.074C172.191 214.139 172.12 214.19 172.041 214.225C171.962 214.26 171.876 214.278 171.79 214.277C170.289 214.251 169.562 214.164 167.668 214.164C166.501 214.164 164.084 214.282 162.476 214.282C160.869 214.282 160.782 212.69 161.452 212.547C164.458 211.901 165.64 211.01 166.654 210.155C166.83 210.009 167.05 209.926 167.279 209.92Z" fill="#A91E2F"/>
<path d="M167.15 201.467L167.284 206.049H171.124L170.99 201.467H167.15Z" fill="#CE6F64"/>
<path d="M187.446 201.467H183.606L184.246 206.049H188.081L187.446 201.467Z" fill="#CE6F64"/>
<path d="M173.13 87.0094C173.391 90.8085 173.581 92.411 171.932 94.5972C169.449 97.8792 164.728 97.3723 163.336 93.7269C162.081 90.4449 161.866 84.7873 165.358 82.8008C166.126 82.3605 166.994 82.1238 167.879 82.1132C168.765 82.1025 169.638 82.3182 170.417 82.7398C171.195 83.1614 171.853 83.7749 172.328 84.5221C172.803 85.2693 173.079 86.1255 173.13 87.0094Z" fill="#E4897B"/>
<path d="M175.342 90.537C177.472 91.7248 179.054 88.7962 179.054 88.7962C179.054 88.7962 175.235 89.2109 175.578 86.9376C176.029 83.9219 173.868 80.256 168.451 80.7271C168.149 80.7527 167.862 80.7885 167.581 80.8346C167.013 80.5658 166.372 80.4964 165.761 80.6376C165.149 80.7789 164.603 81.1225 164.212 81.6128C162.676 81.7408 160.602 83.5738 162.01 85.9955C162.109 85.7173 162.262 85.4614 162.461 85.2429C162.578 86.6611 163.817 88.9139 165.364 89.0624C165.696 91.0029 164.406 93.2506 164.852 95.2781C165.512 98.2016 170.443 98.8621 170.443 98.8621C170.273 98.497 170.209 98.0913 170.26 97.6917C170.311 97.2922 170.473 96.9152 170.729 96.6042C174.078 98.1402 176.285 96.64 176.285 96.64C174.001 95.7901 174.692 94.2746 174.692 94.2746C175.481 94.6247 176.374 94.6554 177.185 94.3604C177.995 94.0653 178.66 93.4675 179.039 92.6925C178.281 92.7285 177.528 92.5441 176.872 92.1616C176.216 91.7791 175.685 91.2148 175.342 90.537Z" fill="#263238"/>
<path d="M166.7 89.6462C166.709 90.0108 166.646 90.3736 166.514 90.7136C166.382 91.0537 166.185 91.3643 165.932 91.6276C165.256 92.3291 164.427 91.8375 164.202 90.9415C164.002 90.1326 164.115 88.7963 164.995 88.4276C165.189 88.3515 165.399 88.325 165.606 88.3505C165.812 88.3761 166.009 88.4529 166.179 88.574C166.348 88.6951 166.484 88.8566 166.576 89.0438C166.667 89.2311 166.71 89.4381 166.7 89.6462Z" fill="#E4897B"/>
<path d="M169.89 125.041C169.89 125.041 170.862 150.313 173.177 165.151C175.04 177.142 183.319 205.158 183.319 205.158H188.552C188.552 205.158 184.236 178.099 183.289 166.246C180.893 136.248 187.113 129.807 181.241 123.561L169.89 125.041Z" fill="#263238"/>
<path d="M174.262 133.033C174.262 133.033 171.897 132.623 170.515 137.129C171.027 145.664 171.902 156.989 173.177 165.151C173.459 166.968 173.889 169.16 174.416 171.561C173.418 157.143 174.262 133.033 174.262 133.033Z" fill="#1E2B7C"/>
<path d="M165.809 125.573C165.809 125.573 161.498 153.534 161.749 165.233C162.01 177.403 166.469 205.169 166.469 205.169H171.656C171.656 205.169 170.837 178.125 171.292 166.175C171.804 153.144 177.124 124.104 177.124 124.104L165.809 125.573Z" fill="#263238"/>
<path d="M189.309 205.404H182.351L181.809 203.069L189.258 203.121L189.309 205.404Z" fill="#407BFF"/>
<path d="M189.309 205.404H182.351L181.809 203.069L189.258 203.121L189.309 205.404Z" fill="#007535"/>
<path d="M180.98 100.122C182.982 100.316 186.023 106.004 186.023 106.004L180.97 109.88C180.97 109.88 176.787 106.209 177.283 104.146C177.8 102.001 179.06 99.9423 180.98 100.122Z" fill="#407BFF"/>
<path d="M180.98 100.122C182.982 100.316 186.023 106.004 186.023 106.004L180.97 109.88C180.97 109.88 176.787 106.209 177.283 104.146C177.8 102.001 179.06 99.9423 180.98 100.122Z" fill="#FBB62E"/>
<path d="M179.469 102.569C178.958 102.431 178.43 102.373 177.902 102.395C177.633 102.955 177.426 103.542 177.283 104.146C176.771 106.194 180.969 109.88 180.969 109.88L181.343 109.594L179.469 102.569Z" fill="#407BFF"/>
<path d="M179.469 102.569C178.958 102.431 178.43 102.373 177.902 102.395C177.633 102.955 177.426 103.542 177.283 104.146C176.771 106.194 180.969 109.88 180.969 109.88L181.343 109.594L179.469 102.569Z" fill="#FBAE17"/>
<path d="M164.094 108.032C162.635 111.724 161.099 115.477 159.875 119.178C159.793 119.414 159.727 119.639 159.655 119.87L159.481 120.438C159.433 120.605 159.433 120.782 159.481 120.95C159.77 121.59 160.228 122.139 160.807 122.537C162.338 123.635 164.006 124.529 165.768 125.194L165.307 127.078C163.139 126.793 161.042 126.109 159.122 125.061C157.941 124.43 156.979 123.455 156.363 122.266C156.009 121.505 155.886 120.658 156.009 119.829C156.021 119.727 156.038 119.626 156.061 119.526L156.112 119.311L156.199 118.922C156.26 118.661 156.322 118.41 156.388 118.154C156.9 116.106 157.556 114.161 158.247 112.23C158.938 110.3 159.66 108.396 160.474 106.496L164.094 108.032Z" fill="#E4897B"/>
<path d="M160.986 102.851C160.986 102.851 159.255 103.726 165.809 125.573L181.261 123.556C180.176 117.299 179.664 113.423 180.98 100.122C178.764 99.963 176.539 99.963 174.324 100.122C171.965 100.259 169.619 100.567 167.304 101.043C164.34 101.704 160.986 102.851 160.986 102.851Z" fill="#407BFF"/>
<path d="M160.986 102.851C160.986 102.851 159.255 103.726 165.809 125.573L181.261 123.556C180.176 117.299 179.664 113.423 180.98 100.122C178.764 99.963 176.539 99.963 174.324 100.122C171.965 100.259 169.619 100.567 167.304 101.043C164.34 101.704 160.986 102.851 160.986 102.851Z" fill="#FBB62E"/>
<path d="M181.374 122.619L182.259 123.904C182.326 124.006 182.213 124.129 182.039 124.155L165.834 126.275C165.696 126.275 165.568 126.239 165.548 126.152L165.23 124.785C165.205 124.692 165.317 124.595 165.471 124.575L181.118 122.527C181.165 122.519 181.213 122.524 181.257 122.54C181.302 122.556 181.342 122.583 181.374 122.619Z" fill="#407BFF"/>
<path d="M181.374 122.619L182.259 123.904C182.326 124.006 182.213 124.129 182.039 124.155L165.834 126.275C165.696 126.275 165.568 126.239 165.548 126.152L165.23 124.785C165.205 124.692 165.317 124.595 165.471 124.575L181.118 122.527C181.165 122.519 181.213 122.524 181.257 122.54C181.302 122.556 181.342 122.583 181.374 122.619Z" fill="#007535"/>
<path d="M179.5 124.641L179.92 124.585C180.002 124.585 180.058 124.523 180.048 124.472L179.618 122.701C179.602 122.67 179.576 122.647 179.544 122.634C179.512 122.621 179.477 122.619 179.444 122.629L179.024 122.68C178.937 122.68 178.881 122.742 178.896 122.798L179.326 124.564C179.336 124.621 179.418 124.651 179.5 124.641Z" fill="#263238"/>
<path d="M169.342 125.952L169.762 125.896C169.844 125.896 169.905 125.834 169.89 125.783L169.46 124.012C169.443 123.982 169.417 123.958 169.385 123.944C169.354 123.93 169.319 123.927 169.286 123.935L168.866 123.991C168.784 123.991 168.722 124.053 168.738 124.104L169.168 125.875C169.178 125.952 169.26 125.983 169.342 125.952Z" fill="#263238"/>
<path d="M161.708 110.264C162.133 112.241 162.732 114.744 163.608 117.914L163.797 109.88L161.708 110.264Z" fill="#407BFF"/>
<path d="M161.708 110.264C162.133 112.241 162.732 114.744 163.608 117.914L163.797 109.88L161.708 110.264Z" fill="#FBAE17"/>
<path d="M160.986 102.85C159.066 103.624 157.402 110.193 157.402 110.193L164.007 113.408C164.007 113.408 167.197 105.375 165.768 103.808C164.34 102.241 163.198 101.965 160.986 102.85Z" fill="#407BFF"/>
<path d="M160.986 102.85C159.066 103.624 157.402 110.193 157.402 110.193L164.007 113.408C164.007 113.408 167.197 105.375 165.768 103.808C164.34 102.241 163.198 101.965 160.986 102.85Z" fill="#FBB62E"/>
<path d="M172.542 205.404H165.584L165.041 203.069L172.788 203.121L172.542 205.404Z" fill="#407BFF"/>
<path d="M172.542 205.404H165.584L165.041 203.069L172.788 203.121L172.542 205.404Z" fill="#007535"/>
<path d="M165.875 124.559L165.317 124.329C165.18 124.273 165.03 124.255 164.884 124.275C164.737 124.296 164.598 124.355 164.482 124.447C164.366 124.538 164.275 124.659 164.221 124.796C164.166 124.934 164.148 125.084 164.17 125.23L164.575 127.898C164.594 128.031 164.643 128.159 164.718 128.271C164.792 128.383 164.891 128.478 165.007 128.547C165.122 128.617 165.252 128.66 165.386 128.673C165.52 128.687 165.656 128.67 165.783 128.625C165.986 128.551 166.176 128.445 166.346 128.312C166.531 128.159 166.678 127.964 166.774 127.743C166.87 127.523 166.913 127.283 166.899 127.043L166.843 125.937C166.833 125.638 166.736 125.348 166.564 125.104C166.393 124.859 166.153 124.67 165.875 124.559Z" fill="#E4897B"/>
</svg>
